<svg xmlns="http://www.w3.org/2000/svg" viewBox="0 0 130 130" id="iraq-flag">
  <rect width="128" height="30.64" x="1" y="49.68" fill="#f0f5f9"></rect>
  <rect width="128" height="27.27" x="1" y="24.09" fill="#ef2b2d"></rect>
  <rect width="128" height="27.27" x="1" y="78.64" fill="#242d44"></rect>
  <polygon fill="#1e8943" points="87.59 58.94 87.59 71.39 91.83 71.39 92.48 69 91.88 69 91.61 69.76 89.38 69.76 89.38 61.93 90.03 61.12 87.59 58.94"></polygon>
  <path fill="#1e8943" d="M83.8 57.93l.55.47V69.49H82.84V58.94l-2.28 2 .74.64v7.8H79.53V61.72L77.37 64l.51.6v2a2.43 2.43 0 0 0-3.22 1.71v2.25a.83.83 0 0 0 .82.83H86V55.74zM78 69.62H76.07v-.23A1.45 1.45 0 0 1 78 67.89zM82.62 56.49s-.1 1.56-1.67.78c0 0-.44-.11-.53.3a1.28 1.28 0 0 1-2.06.33 1.5 1.5 0 0 0 2.46.16s2.07.48 2.14-.91A.85.85 0 0 0 82.62 56.49zM79.36 54.54s.43.13.69.86.41 1 .29 1.18-.65-.55-.9-.94S79 54.7 79.36 54.54z"></path>
  <polygon fill="#1e8943" points="67.44 69.09 66.9 69.62 64.7 69.62 64.7 61.99 65.42 61.14 63.08 58.85 63.08 71.39 67.44 71.39 67.44 70.17 67.44 69.09"></polygon>
  <path fill="#1e8943" d="M55.85,54.54,46.73,68.19H58.41v-3.5l.9-.9.72.72v5.3H46.15V65.72L44,67.84l.4,1.11v.86H42.1l-1-2.34-1.44,1.8a2.87,2.87,0,0,1,.86,2.78c-.54,1.48-1.62,1.26-3,1.08,0,0,1.35,2.38,3.1,1.44a3.43,3.43,0,0,0,1.71-2.92H61.64V63.57l-2.42-2.16-2.38,2.16v2.82H49.92l5.7-8.81,1.08-.53Z"></path>
  <polygon fill="#1e8943" points="44.21 72.85 42.99 74.22 44.21 75.46 45.47 74.15 44.21 72.85"></polygon>
</svg>
